# xmcd
#
# Track frame offsets:
# 150
# 16796
# 34102
# 47404
# 63646
# 78213
# 93352
# 109355
# 119054
# 133658
# 152770
# 170824
# 187192
# 200825
# 216719
# 230624
# 245036
# 264513
# 282616
# 298347
# 314562
# 329049
#
# Disc length: 4530 seconds
#
#
# Revision: 0
# Processed by: cddbd v1.5.1PL2 Copyright (c) Steve Scherf et al.
# Submitted via: FreeRIP 2.944 
#
DISCID=6d11b016
DTITLE=Gino and Geno - Forró Bailão
DYEAR=1900
DGENRE=Sertanejo
TTITLE0=ela chorou de amor
TTITLE1=mulher que não dá voa
TTITLE2=sou feio mas tô na moda
TTITLE3=pinga na garganta
TTITLE4=o que é que ela tem
TTITLE5=o gato comeu
TTITLE6=tição aceso
TTITLE7=trem tá feio
TTITLE8=nóis não vive é sem dinheiro
TTITLE9=coração cigano
TTITLE10=lorota
TTITLE11=quando ela quer
TTITLE12=vazei na braquiara
TTITLE13=macaco velho
TTITLE14=o que eu tô fazendo aqui
TTITLE15=tchê, tchê, tchê, tchá, tchá, tchá
TTITLE16=apaixonado por você
TTITLE17=é carro
TTITLE18=agora é só alegria
TTITLE19=mete o dedo
TTITLE20=dor de cabeça
TTITLE21=churasco de paixão
EXTD=
EXTT0=
EXTT1=
EXTT2=
EXTT3=
EXTT4=
EXTT5=
EXTT6=
EXTT7=
EXTT8=
EXTT9=
EXTT10=
EXTT11=
EXTT12=
EXTT13=
EXTT14=
EXTT15=
EXTT16=
EXTT17=
EXTT18=
EXTT19=
EXTT20=
EXTT21=
PLAYORDER=
